{
  "accessors": [
    {
      "bufferView": 2,
      "componentType": 5126,
      "count": 28045,
      "max": [
        1.8730355501174927,
        1.8885509967803955,
        1.8260855674743652
      ],
      "min": [
        -1.803084373474121,
        -1.6556618213653564,
        -1.9660358428955078
      ],
      "type": "VEC3"
    },
    {
      "bufferView": 2,
      "byteOffset": 336540,
      "componentType": 5126,
      "count": 28045,
      "max": [
        0.9998801946640015,
        0.9998914003372192,
        0.9999740719795227
      ],
      "min": [
        -0.9998576641082764,
        -0.9997119903564453,
        -0.9999790191650391
      ],
      "type": "VEC3"
    },
    {
      "bufferView": 1,
      "componentType": 5126,
      "count": 28045,
      "max": [
        0.9990234375,
        0.9989681243896484
      ],
      "min": [
        0.0009765905560925603,
        0.0010318756103515625
      ],
      "type": "VEC2"
    },
    {
      "bufferView": 0,
      "componentType": 5125,
      "count": 90000,
      "type": "SCALAR"
    },
    {
      "bufferView": 2,
      "byteOffset": 673080,
      "componentType": 5126,
      "count": 35805,
      "max": [
        1.7366695404052734,
        1.9562678337097168,
        1.1049513816833496
      ],
      "min": [
        -1.6256263256072998,
        -1.3222815990447998,
        -1.4901676177978516
      ],
      "type": "VEC3"
    },
    {
      "bufferView": 2,
      "byteOffset": 1102740,
      "componentType": 5126,
      "count": 35805,
      "max": [
        0.9996796250343323,
        0.9998453855514526,
        0.9999741911888123
      ],
      "min": [
        -0.9999066591262817,
        -0.9999184012413025,
        -0.9998347163200378
      ],
      "type": "VEC3"
    },
    {
      "bufferView": 1,
      "byteOffset": 224360,
      "componentType": 5126,
      "count": 35805,
      "max": [
        0.9990233778953552,
        0.9990980625152588
      ],
      "min": [
        0.000976617680862546,
        0.0009019374847412109
      ],
      "type": "VEC2"
    },
    {
      "bufferView": 0,
      "byteOffset": 360000,
      "componentType": 5125,
      "count": 89997,
      "type": "SCALAR"
    },
    {
      "bufferView": 2,
      "byteOffset": 1532400,
      "componentType": 5126,
      "count": 23549,
      "max": [
        1.7898821830749512,
        1.9677414894104004,
        1.6132359504699707
      ],
      "min": [
        -1.8758175373077393,
        -1.984006404876709,
        -1.7973275184631348
      ],
      "type": "VEC3"
    },
    {
      "bufferView": 2,
      "byteOffset": 1814988,
      "componentType": 5126,
      "count": 23549,
      "max": [
        0.9993705749511719,
        0.9993053674697876,
        0.9997681975364685
      ],
      "min": [
        -0.9997856020927429,
        -0.999988317489624,
        -0.9998509883880615
      ],
      "type": "VEC3"
    },
    {
      "bufferView": 3,
      "componentType": 5126,
      "count": 23549,
      "max": [
        0.9998193979263306,
        0.9999910593032837,
        0.9999620318412781,
        1.0
      ],
      "min": [
        -0.9999192953109741,
        -0.9999763369560242,
        -0.9999876618385315,
        -1.0
      ],
      "type": "VEC4"
    },
    {
      "bufferView": 1,
      "byteOffset": 510800,
      "componentType": 5126,
      "count": 23549,
      "max": [
        0.9990234375,
        0.9990010261535645
      ],
      "min": [
        0.0009765787981450558,
        0.0009989738464355469
      ],
      "type": "VEC2"
    },
    {
      "bufferView": 0,
      "byteOffset": 719988,
      "componentType": 5125,
      "count": 74775,
      "type": "SCALAR"
    },
    {
      "bufferView": 2,
      "byteOffset": 2097576,
      "componentType": 5126,
      "count": 21451,
      "max": [
        2.8875904083251953,
        1.211064338684082,
        1.3755335807800293
      ],
      "min": [
        -2.246140480041504,
        -1.3037958145141602,
        -1.1396865844726563
      ],
      "type": "VEC3"
    },
    {
      "bufferView": 2,
      "byteOffset": 2354988,
      "componentType": 5126,
      "count": 21451,
      "max": [
        0.9997773766517639,
        0.9999870657920837,
        0.9999878406524658
      ],
      "min": [
        -0.9999408721923828,
        -0.9999538660049438,
        -0.9996632933616638
      ],
      "type": "VEC3"
    },
    {
      "bufferView": 3,
      "byteOffset": 376784,
      "componentType": 5126,
      "count": 21451,
      "max": [
        0.9999120831489563,
        0.9996235966682434,
        0.9997122287750244,
        1.0
      ],
      "min": [
        -0.9999738931655884,
        -0.9999542832374573,
        -0.9999989867210388,
        1.0
      ],
      "type": "VEC4"
    },
    {
      "bufferView": 1,
      "byteOffset": 699192,
      "componentType": 5126,
      "count": 21451,
      "max": [
        0.9990234375,
        0.998969316482544
      ],
      "min": [
        0.0009765635477378964,
        0.0010306835174560547
      ],
      "type": "VEC2"
    },
    {
      "bufferView": 0,
      "byteOffset": 1019088,
      "componentType": 5125,
      "count": 74949,
      "type": "SCALAR"
    }
  ],
  "asset": {
    "extras": {
      "author": "Thomas Flynn (https://sketchfab.com/nebulousflynn)",
      "license": "CC-BY-4.0 (http://creativecommons.org/licenses/by/4.0/)",
      "source": "https://sketchfab.com/3d-models/mineral-samples-prirodoslovni-muzej-slovenije-f3da55f7fedb41adb3c57bd70c6ada76",
      "title": "Mineral Samples - Prirodoslovni muzej Slovenije"
    },
    "generator": "Sketchfab-13.47.0",
    "version": "2.0"
  },
  "bufferViews": [
    {
      "buffer": 0,
      "byteLength": 1318884,
      "name": "floatBufferViews",
      "target": 34963
    },
    {
      "buffer": 0,
      "byteLength": 870800,
      "byteOffset": 1318884,
      "byteStride": 8,
      "name": "floatBufferViews",
      "target": 34962
    },
    {
      "buffer": 0,
      "byteLength": 2612400,
      "byteOffset": 2189684,
      "byteStride": 12,
      "name": "floatBufferViews",
      "target": 34962
    },
    {
      "buffer": 0,
      "byteLength": 720000,
      "byteOffset": 4802084,
      "byteStride": 16,
      "name": "floatBufferViews",
      "target": 34962
    }
  ],
  "buffers": [
    {
      "byteLength": 5522084,
      "uri": "scene.bin"
    }
  ],
  "images": [
    {
      "uri": "textures/Material_0_baseColor.jpeg"
    },
    {
      "uri": "textures/Material_0_emissive.jpeg"
    },
    {
      "uri": "textures/Material_0.002_baseColor.jpeg"
    },
    {
      "uri": "textures/Material_0.002_metallicRoughness.png"
    },
    {
      "uri": "textures/Material_0.002_normal.png"
    },
    {
      "uri": "textures/Material_0.003_baseColor.jpeg"
    },
    {
      "uri": "textures/Material_0.003_metallicRoughness.png"
    },
    {
      "uri": "textures/Material_0.003_normal.png"
    }
  ],
  "materials": [
    {
      "doubleSided": true,
      "emissiveFactor": [
        1.0,
        1.0,
        1.0
      ],
      "emissiveTexture": {
        "index": 1
      },
      "name": "Material_0",
      "pbrMetallicRoughness": {
        "baseColorTexture": {
          "index": 0
        }
      }
    },
    {
      "doubleSided": true,
      "emissiveFactor": [
        1.0,
        1.0,
        1.0
      ],
      "emissiveTexture": {
        "index": 0
      },
      "name": "Material_0.001",
      "pbrMetallicRoughness": {
        "baseColorTexture": {
          "index": 1
        }
      }
    },
    {
      "doubleSided": true,
      "emissiveFactor": [
        1.0,
        1.0,
        1.0
      ],
      "emissiveTexture": {
        "index": 2
      },
      "name": "Material_0.002",
      "normalTexture": {
        "index": 4,
        "scale": 0.47912243023064804
      },
      "occlusionTexture": {
        "index": 3
      },
      "pbrMetallicRoughness": {
        "baseColorTexture": {
          "index": 2
        },
        "metallicRoughnessTexture": {
          "index": 3
        }
      }
    },
    {
      "doubleSided": true,
      "emissiveFactor": [
        1.0,
        1.0,
        1.0
      ],
      "emissiveTexture": {
        "index": 5
      },
      "name": "Material_0.003",
      "normalTexture": {
        "index": 7
      },
      "occlusionTexture": {
        "index": 6
      },
      "pbrMetallicRoughness": {
        "baseColorTexture": {
          "index": 5
        },
        "metallicRoughnessTexture": {
          "index": 6
        }
      }
    }
  ],
  "meshes": [
    {
      "name": "Object_0",
      "primitives": [
        {
          "attributes": {
            "NORMAL": 1,
            "POSITION": 0,
            "TEXCOORD_0": 2
          },
          "indices": 3,
          "material": 0,
          "mode": 4
        }
      ]
    },
    {
      "name": "Object_1",
      "primitives": [
        {
          "attributes": {
            "NORMAL": 5,
            "POSITION": 4,
            "TEXCOORD_0": 6
          },
          "indices": 7,
          "material": 1,
          "mode": 4
        }
      ]
    },
    {
      "name": "Object_2",
      "primitives": [
        {
          "attributes": {
            "NORMAL": 9,
            "POSITION": 8,
            "TANGENT": 10,
            "TEXCOORD_0": 11
          },
          "indices": 12,
          "material": 2,
          "mode": 4
        }
      ]
    },
    {
      "name": "Object_3",
      "primitives": [
        {
          "attributes": {
            "NORMAL": 14,
            "POSITION": 13,
            "TANGENT": 15,
            "TEXCOORD_0": 16
          },
          "indices": 17,
          "material": 3,
          "mode": 4
        }
      ]
    }
  ],
  "nodes": [
    {
      "children": [
        1
      ],
      "matrix": [
        0.02500000037252903,
        0.0,
        0.0,
        0.0,
        0.0,
        5.551115205843844e-18,
        -0.02500000037252903,
        0.0,
        0.0,
        0.02500000037252903,
        5.551115205843844e-18,
        0.0,
        0.0,
        0.0,
        0.0,
        1.0
      ],
      "name": "Sketchfab_model"
    },
    {
      "children": [
        2
      ],
      "name": "root"
    },
    {
      "children": [
        3,
        5,
        7,
        9
      ],
      "matrix": [
        1.0,
        0.0,
        0.0,
        0.0,
        0.0,
        2.220446049250313e-16,
        1.0,
        0.0,
        0.0,
        -1.0,
        2.220446049250313e-16,
        0.0,
        0.0,
        0.0,
        0.0,
        1.0
      ],
      "name": "GLTF_SceneRootNode"
    },
    {
      "children": [
        4
      ],
      "matrix": [
        -0.9884519372214924,
        0.0,
        -0.15153470824559986,
        0.0,
        0.0,
        1.0,
        0.0,
        0.0,
        0.15153470824559986,
        0.0,
        -0.9884519372214924,
        0.0,
        -0.1682724952697754,
        1.8234331607818604,
        -2.706068992614746,
        1.0
      ],
      "name": "Mesh_0_0"
    },
    {
      "mesh": 0,
      "name": "Object_4"
    },
    {
      "children": [
        6
      ],
      "matrix": [
        0.3160736995129668,
        0.0,
        0.9487346396523038,
        0.0,
        -0.0,
        1.0,
        0.0,
        0.0,
        -0.9487346396523038,
        0.0,
        0.3160736995129668,
        0.0,
        -2.8485336303710938,
        1.6852567195892334,
        -0.21560323238372803,
        1.0
      ],
      "name": "Mesh_0.001_1"
    },
    {
      "mesh": 1,
      "name": "Object_6"
    },
    {
      "children": [
        8
      ],
      "matrix": [
        1.0,
        0.0,
        0.0,
        0.0,
        0.0,
        1.0,
        0.0,
        0.0,
        0.0,
        0.0,
        1.0,
        0.0,
        0.1597003936767578,
        2.173464298248291,
        2.1477370262145996,
        1.0
      ],
      "name": "Mesh_0.002_2"
    },
    {
      "mesh": 2,
      "name": "Object_8"
    },
    {
      "children": [
        10
      ],
      "matrix": [
        -0.2992519524495001,
        0.0,
        -0.9541741292631875,
        0.0,
        0.0,
        1.0,
        0.0,
        0.0,
        0.9541741292631875,
        0.0,
        -0.2992519524495001,
        0.0,
        2.8084161281585693,
        1.5699615478515625,
        -0.2058982253074646,
        1.0
      ],
      "name": "Mesh_0.003_3"
    },
    {
      "mesh": 3,
      "name": "Object_10"
    }
  ],
  "samplers": [
    {
      "magFilter": 9729,
      "minFilter": 9987,
      "wrapS": 10497,
      "wrapT": 10497
    }
  ],
  "scene": 0,
  "scenes": [
    {
      "name": "Sketchfab_Scene",
      "nodes": [
        0
      ]
    }
  ],
  "textures": [
    {
      "sampler": 0,
      "source": 0
    },
    {
      "sampler": 0,
      "source": 1
    },
    {
      "sampler": 0,
      "source": 2
    },
    {
      "sampler": 0,
      "source": 3
    },
    {
      "sampler": 0,
      "source": 4
    },
    {
      "sampler": 0,
      "source": 5
    },
    {
      "sampler": 0,
      "source": 6
    },
    {
      "sampler": 0,
      "source": 7
    }
  ]
}
