{
  "accessors": [
    {
      "bufferView": 2,
      "componentType": 5126,
      "count": 2969,
      "max": [
        0.17558372020721436,
        3.2424025535583496,
        0.5045269727706909
      ],
      "min": [
        -0.17558372020721436,
        -1.382788062095642,
        -0.7310313582420349
      ],
      "type": "VEC3"
    },
    {
      "bufferView": 2,
      "byteOffset": 35628,
      "componentType": 5126,
      "count": 2969,
      "max": [
        1.0,
        1.0,
        1.0
      ],
      "min": [
        -1.0,
        -1.0,
        -1.0
      ],
      "type": "VEC3"
    },
    {
      "bufferView": 3,
      "componentType": 5126,
      "count": 2969,
      "max": [
        1.0,
        1.0,
        1.0,
        1.0
      ],
      "min": [
        -1.0,
        -1.0,
        -1.0,
        -1.0
      ],
      "type": "VEC4"
    },
    {
      "bufferView": 1,
      "componentType": 5126,
      "count": 2969,
      "max": [
        0.998096227645874,
        0.9980470538139343
      ],
      "min": [
        0.0019037320744246244,
        0.0019037320744246244
      ],
      "type": "VEC2"
    },
    {
      "bufferView": 0,
      "componentType": 5125,
      "count": 6981,
      "type": "SCALAR"
    },
    {
      "bufferView": 2,
      "byteOffset": 71256,
      "componentType": 5126,
      "count": 1649,
      "max": [
        1.0256214141845703,
        3.665945529937744,
        0.14160583913326263
      ],
      "min": [
        -0.32009726762771606,
        0.7336947917938232,
        -1.3737894296646118
      ],
      "type": "VEC3"
    },
    {
      "bufferView": 2,
      "byteOffset": 91044,
      "componentType": 5126,
      "count": 1649,
      "max": [
        1.0,
        1.0,
        1.0
      ],
      "min": [
        -1.0,
        -1.0,
        -1.0
      ],
      "type": "VEC3"
    },
    {
      "bufferView": 3,
      "byteOffset": 47504,
      "componentType": 5126,
      "count": 1649,
      "max": [
        0.95696622133255,
        0.9822824597358704,
        1.0,
        1.0
      ],
      "min": [
        -0.9807900786399841,
        -0.9997745752334595,
        -0.9989284873008728,
        1.0
      ],
      "type": "VEC4"
    },
    {
      "bufferView": 1,
      "byteOffset": 23752,
      "componentType": 5126,
      "count": 1649,
      "max": [
        0.9719117283821106,
        0.9991104602813721
      ],
      "min": [
        0.0008895268547348678,
        0.0008895268547348678
      ],
      "type": "VEC2"
    },
    {
      "bufferView": 0,
      "byteOffset": 27924,
      "componentType": 5125,
      "count": 6096,
      "type": "SCALAR"
    },
    {
      "bufferView": 2,
      "byteOffset": 110832,
      "componentType": 5126,
      "count": 1530,
      "max": [
        0.15384657680988312,
        1.7110536098480225,
        0.7091588377952576
      ],
      "min": [
        -0.30659592151641846,
        -1.3473072052001953,
        -0.1603873074054718
      ],
      "type": "VEC3"
    },
    {
      "bufferView": 2,
      "byteOffset": 129192,
      "componentType": 5126,
      "count": 1530,
      "max": [
        1.0,
        1.0,
        1.0
      ],
      "min": [
        -1.0,
        -1.0,
        -1.0
      ],
      "type": "VEC3"
    },
    {
      "bufferView": 3,
      "byteOffset": 73888,
      "componentType": 5126,
      "count": 1530,
      "max": [
        1.0,
        1.0,
        0.997482180595398,
        1.0
      ],
      "min": [
        -1.0,
        -1.0,
        -1.0,
        1.0
      ],
      "type": "VEC4"
    },
    {
      "bufferView": 1,
      "byteOffset": 36944,
      "componentType": 5126,
      "count": 1530,
      "max": [
        0.9768613576889038,
        0.9958605766296387
      ],
      "min": [
        0.021593034267425537,
        0.013355313800275326
      ],
      "type": "VEC2"
    },
    {
      "bufferView": 0,
      "byteOffset": 52308,
      "componentType": 5125,
      "count": 2292,
      "type": "SCALAR"
    },
    {
      "bufferView": 2,
      "byteOffset": 147552,
      "componentType": 5126,
      "count": 824,
      "max": [
        0.2312232106924057,
        1.5771839618682861,
        0.8325812816619873
      ],
      "min": [
        -0.16127026081085205,
        0.38766753673553467,
        0.43927907943725586
      ],
      "type": "VEC3"
    },
    {
      "bufferView": 2,
      "byteOffset": 157440,
      "componentType": 5126,
      "count": 824,
      "max": [
        1.0,
        1.0,
        1.0
      ],
      "min": [
        -1.0,
        -1.0,
        -1.0
      ],
      "type": "VEC3"
    },
    {
      "bufferView": 3,
      "byteOffset": 98368,
      "componentType": 5126,
      "count": 824,
      "max": [
        1.0,
        1.0,
        1.0,
        1.0
      ],
      "min": [
        -1.0,
        -1.0,
        -1.0,
        1.0
      ],
      "type": "VEC4"
    },
    {
      "bufferView": 1,
      "byteOffset": 49184,
      "componentType": 5126,
      "count": 824,
      "max": [
        0.9988601803779602,
        0.9736722111701965
      ],
      "min": [
        0.0011398433707654476,
        0.0011398433707654476
      ],
      "type": "VEC2"
    },
    {
      "bufferView": 0,
      "byteOffset": 61476,
      "componentType": 5125,
      "count": 2208,
      "type": "SCALAR"
    },
    {
      "bufferView": 2,
      "byteOffset": 167328,
      "componentType": 5126,
      "count": 596,
      "max": [
        0.05742798000574112,
        2.291212797164917,
        0.1569158136844635
      ],
      "min": [
        -0.05742798000574112,
        1.4572428464889526,
        -0.46930044889450073
      ],
      "type": "VEC3"
    },
    {
      "bufferView": 2,
      "byteOffset": 174480,
      "componentType": 5126,
      "count": 596,
      "max": [
        1.0,
        0.991694450378418,
        0.9993439316749573
      ],
      "min": [
        -1.0,
        -0.9892551302909851,
        -0.9323140382766724
      ],
      "type": "VEC3"
    },
    {
      "bufferView": 3,
      "byteOffset": 111552,
      "componentType": 5126,
      "count": 596,
      "max": [
        1.0,
        0.9323146939277649,
        0.6195644736289978,
        1.0
      ],
      "min": [
        -1.0,
        -0.9993433952331543,
        -0.9813245534896851,
        1.0
      ],
      "type": "VEC4"
    },
    {
      "bufferView": 1,
      "byteOffset": 55776,
      "componentType": 5126,
      "count": 596,
      "max": [
        0.9251356720924377,
        0.9324029684066772
      ],
      "min": [
        0.25371110439300537,
        0.0008895268547348678
      ],
      "type": "VEC2"
    },
    {
      "bufferView": 0,
      "byteOffset": 70308,
      "componentType": 5125,
      "count": 2364,
      "type": "SCALAR"
    }
  ],
  "asset": {
    "extras": {
      "author": "Frostoise (https://sketchfab.com/Frostoise)",
      "license": "CC-BY-4.0 (http://creativecommons.org/licenses/by/4.0/)",
      "source": "https://sketchfab.com/3d-models/hmg-379-533204d3a9f240f78b65973b323cba7c",
      "title": "HMG-379"
    },
    "generator": "Sketchfab-13.74.0",
    "version": "2.0"
  },
  "bufferViews": [
    {
      "buffer": 0,
      "byteLength": 79764,
      "name": "floatBufferViews",
      "target": 34963
    },
    {
      "buffer": 0,
      "byteLength": 60544,
      "byteOffset": 79764,
      "byteStride": 8,
      "name": "floatBufferViews",
      "target": 34962
    },
    {
      "buffer": 0,
      "byteLength": 181632,
      "byteOffset": 140308,
      "byteStride": 12,
      "name": "floatBufferViews",
      "target": 34962
    },
    {
      "buffer": 0,
      "byteLength": 121088,
      "byteOffset": 321940,
      "byteStride": 16,
      "name": "floatBufferViews",
      "target": 34962
    }
  ],
  "buffers": [
    {
      "byteLength": 443028,
      "uri": "scene.bin"
    }
  ],
  "images": [
    {
      "uri": "textures/MainBody_baseColor.png"
    },
    {
      "uri": "textures/MainBody_metallicRoughness.png"
    },
    {
      "uri": "textures/MainBody_normal.png"
    },
    {
      "uri": "textures/Handle_baseColor.png"
    },
    {
      "uri": "textures/Handle_metallicRoughness.png"
    },
    {
      "uri": "textures/Handle_emissive.png"
    },
    {
      "uri": "textures/Handle_normal.png"
    },
    {
      "uri": "textures/Inter_baseColor.png"
    },
    {
      "uri": "textures/Inter_metallicRoughness.png"
    },
    {
      "uri": "textures/Inter_emissive.png"
    },
    {
      "uri": "textures/Inter_normal.png"
    },
    {
      "uri": "textures/Scope_baseColor.png"
    },
    {
      "uri": "textures/Scope_metallicRoughness.png"
    },
    {
      "uri": "textures/Scope_emissive.png"
    },
    {
      "uri": "textures/Scope_normal.png"
    }
  ],
  "materials": [
    {
      "doubleSided": true,
      "name": "MainBody",
      "normalTexture": {
        "index": 2
      },
      "occlusionTexture": {
        "index": 1
      },
      "pbrMetallicRoughness": {
        "baseColorTexture": {
          "index": 0
        },
        "metallicRoughnessTexture": {
          "index": 1
        }
      }
    },
    {
      "doubleSided": true,
      "emissiveFactor": [
        1.0,
        1.0,
        1.0
      ],
      "emissiveTexture": {
        "index": 5
      },
      "name": "Handle",
      "normalTexture": {
        "index": 6
      },
      "occlusionTexture": {
        "index": 4
      },
      "pbrMetallicRoughness": {
        "baseColorTexture": {
          "index": 3
        },
        "metallicRoughnessTexture": {
          "index": 4
        }
      }
    },
    {
      "doubleSided": true,
      "emissiveFactor": [
        1.0,
        1.0,
        1.0
      ],
      "emissiveTexture": {
        "index": 9
      },
      "name": "Inter",
      "normalTexture": {
        "index": 10
      },
      "occlusionTexture": {
        "index": 8
      },
      "pbrMetallicRoughness": {
        "baseColorTexture": {
          "index": 7
        },
        "metallicRoughnessTexture": {
          "index": 8
        }
      }
    },
    {
      "alphaMode": "BLEND",
      "doubleSided": true,
      "emissiveFactor": [
        1.0,
        1.0,
        1.0
      ],
      "emissiveTexture": {
        "index": 13
      },
      "name": "Scope",
      "normalTexture": {
        "index": 14
      },
      "occlusionTexture": {
        "index": 12
      },
      "pbrMetallicRoughness": {
        "baseColorTexture": {
          "index": 11
        },
        "metallicRoughnessTexture": {
          "index": 12
        }
      }
    }
  ],
  "meshes": [
    {
      "name": "Cube.012_MainBody_0",
      "primitives": [
        {
          "attributes": {
            "NORMAL": 1,
            "POSITION": 0,
            "TANGENT": 2,
            "TEXCOORD_0": 3
          },
          "indices": 4,
          "material": 0,
          "mode": 4
        }
      ]
    },
    {
      "name": "Cube.012_Handle_0",
      "primitives": [
        {
          "attributes": {
            "NORMAL": 6,
            "POSITION": 5,
            "TANGENT": 7,
            "TEXCOORD_0": 8
          },
          "indices": 9,
          "material": 1,
          "mode": 4
        }
      ]
    },
    {
      "name": "Cube.012_Inter_0",
      "primitives": [
        {
          "attributes": {
            "NORMAL": 11,
            "POSITION": 10,
            "TANGENT": 12,
            "TEXCOORD_0": 13
          },
          "indices": 14,
          "material": 2,
          "mode": 4
        }
      ]
    },
    {
      "name": "Cube.012_Scope_0",
      "primitives": [
        {
          "attributes": {
            "NORMAL": 16,
            "POSITION": 15,
            "TANGENT": 17,
            "TEXCOORD_0": 18
          },
          "indices": 19,
          "material": 3,
          "mode": 4
        }
      ]
    },
    {
      "name": "Cube.014_Handle_0",
      "primitives": [
        {
          "attributes": {
            "NORMAL": 21,
            "POSITION": 20,
            "TANGENT": 22,
            "TEXCOORD_0": 23
          },
          "indices": 24,
          "material": 1,
          "mode": 4
        }
      ]
    }
  ],
  "nodes": [
    {
      "children": [
        1
      ],
      "matrix": [
        1.0,
        0.0,
        0.0,
        0.0,
        0.0,
        2.220446049250313e-16,
        -1.0,
        0.0,
        0.0,
        1.0,
        2.220446049250313e-16,
        0.0,
        0.0,
        0.0,
        0.0,
        1.0
      ],
      "name": "Sketchfab_model"
    },
    {
      "children": [
        2
      ],
      "matrix": [
        0.009999999776482582,
        0.0,
        0.0,
        0.0,
        0.0,
        0.0,
        0.009999999776482582,
        0.0,
        0.0,
        -0.009999999776482582,
        0.0,
        0.0,
        0.0,
        0.0,
        0.0,
        1.0
      ],
      "name": "cc769962ff174c5eaa59d9c4e88b9024.fbx"
    },
    {
      "children": [
        3,
        8
      ],
      "name": "RootNode"
    },
    {
      "children": [
        4,
        5,
        6,
        7
      ],
      "matrix": [
        100.0,
        0.0,
        0.0,
        0.0,
        0.0,
        -1.629206793918314e-05,
        -99.99999999999868,
        0.0,
        0.0,
        99.99999999999868,
        -1.629206793918314e-05,
        0.0,
        1.0541631654506674e-14,
        47.47528839111328,
        95.71018981933594,
        1.0
      ],
      "name": "Cube.012"
    },
    {
      "mesh": 0,
      "name": "Cube.012_MainBody_0"
    },
    {
      "mesh": 1,
      "name": "Cube.012_Handle_0"
    },
    {
      "mesh": 2,
      "name": "Cube.012_Inter_0"
    },
    {
      "mesh": 3,
      "name": "Cube.012_Scope_0"
    },
    {
      "children": [
        9
      ],
      "matrix": [
        100.0,
        0.0,
        0.0,
        0.0,
        0.0,
        -1.629206793918314e-05,
        -99.99999999999868,
        0.0,
        0.0,
        99.99999999999868,
        -1.629206793918314e-05,
        0.0,
        1.0541631654506674e-14,
        47.47528839111328,
        95.71018981933594,
        1.0
      ],
      "name": "Cube.014"
    },
    {
      "mesh": 4,
      "name": "Cube.014_Handle_0"
    }
  ],
  "samplers": [
    {
      "magFilter": 9729,
      "minFilter": 9987,
      "wrapS": 10497,
      "wrapT": 10497
    }
  ],
  "scene": 0,
  "scenes": [
    {
      "name": "Sketchfab_Scene",
      "nodes": [
        0
      ]
    }
  ],
  "textures": [
    {
      "sampler": 0,
      "source": 0
    },
    {
      "sampler": 0,
      "source": 1
    },
    {
      "sampler": 0,
      "source": 2
    },
    {
      "sampler": 0,
      "source": 3
    },
    {
      "sampler": 0,
      "source": 4
    },
    {
      "sampler": 0,
      "source": 5
    },
    {
      "sampler": 0,
      "source": 6
    },
    {
      "sampler": 0,
      "source": 7
    },
    {
      "sampler": 0,
      "source": 8
    },
    {
      "sampler": 0,
      "source": 9
    },
    {
      "sampler": 0,
      "source": 10
    },
    {
      "sampler": 0,
      "source": 11
    },
    {
      "sampler": 0,
      "source": 12
    },
    {
      "sampler": 0,
      "source": 13
    },
    {
      "sampler": 0,
      "source": 14
    }
  ]
}
