{
  "accessors": [
    {
      "bufferView": 2,
      "componentType": 5126,
      "count": 65532,
      "max": [
        3.5426700115203857,
        3.330643892288208,
        1.0970369577407837
      ],
      "min": [
        -1.2248079776763916,
        -1.979274034500122,
        -3.189647912979126
      ],
      "type": "VEC3"
    },
    {
      "bufferView": 2,
      "byteOffset": 786384,
      "componentType": 5126,
      "count": 65532,
      "max": [
        0.9999886751174927,
        0.9999849796295166,
        0.9999930262565613
      ],
      "min": [
        -0.9999974966049194,
        -0.9999940991401672,
        -0.9999752044677734
      ],
      "type": "VEC3"
    },
    {
      "bufferView": 1,
      "componentType": 5126,
      "count": 65532,
      "max": [
        0.9742559790611267,
        0.9504430294036865
      ],
      "min": [
        0.030546000227332115,
        0.038102999329566956
      ],
      "type": "VEC2"
    },
    {
      "bufferView": 0,
      "componentType": 5125,
      "count": 310077,
      "type": "SCALAR"
    },
    {
      "bufferView": 2,
      "byteOffset": 1572768,
      "componentType": 5126,
      "count": 65532,
      "max": [
        3.576061964035034,
        2.818135976791382,
        1.0932650566101074
      ],
      "min": [
        -1.2248079776763916,
        -1.9856799840927124,
        -2.991360902786255
      ],
      "type": "VEC3"
    },
    {
      "bufferView": 2,
      "byteOffset": 2359152,
      "componentType": 5126,
      "count": 65532,
      "max": [
        0.9999886751174927,
        0.9999909996986389,
        0.9997869729995728
      ],
      "min": [
        -0.9999387860298157,
        -0.9999971985816956,
        -0.9999889731407166
      ],
      "type": "VEC3"
    },
    {
      "bufferView": 1,
      "byteOffset": 524256,
      "componentType": 5126,
      "count": 65532,
      "max": [
        0.9799900054931641,
        0.9681609869003296
      ],
      "min": [
        0.02681799978017807,
        0.031856000423431396
      ],
      "type": "VEC2"
    },
    {
      "bufferView": 0,
      "byteOffset": 1240308,
      "componentType": 5125,
      "count": 289035,
      "type": "SCALAR"
    },
    {
      "bufferView": 2,
      "byteOffset": 3145536,
      "componentType": 5126,
      "count": 15201,
      "max": [
        3.2987349033355713,
        3.330643892288208,
        0.9779189825057983
      ],
      "min": [
        -1.1094520092010498,
        -1.9856799840927124,
        -3.189647912979126
      ],
      "type": "VEC3"
    },
    {
      "bufferView": 2,
      "byteOffset": 3327948,
      "componentType": 5126,
      "count": 15201,
      "max": [
        0.9998840689659119,
        0.999820351600647,
        0.9991680383682251
      ],
      "min": [
        -0.9997050166130066,
        -0.9999748468399048,
        -0.9999865889549255
      ],
      "type": "VEC3"
    },
    {
      "bufferView": 1,
      "byteOffset": 1048512,
      "componentType": 5126,
      "count": 15201,
      "max": [
        0.9722930192947388,
        0.96185702085495
      ],
      "min": [
        0.019996000453829765,
        0.04184199869632721
      ],
      "type": "VEC2"
    },
    {
      "bufferView": 0,
      "byteOffset": 2396448,
      "componentType": 5125,
      "count": 51402,
      "type": "SCALAR"
    }
  ],
  "asset": {
    "extras": {
      "author": "C-List (https://sketchfab.com/Mulberry_Bill)",
      "license": "CC-BY-4.0 (http://creativecommons.org/licenses/by/4.0/)",
      "source": "https://sketchfab.com/3d-models/reptillian-alien-4ec6a2ed140b4dcaba5f3bd6c06fd475",
      "title": "Reptillian Alien"
    },
    "generator": "Sketchfab-12.66.0",
    "version": "2.0"
  },
  "bufferViews": [
    {
      "buffer": 0,
      "byteLength": 2602056,
      "name": "floatBufferViews",
      "target": 34963
    },
    {
      "buffer": 0,
      "byteLength": 1170120,
      "byteOffset": 2602056,
      "byteStride": 8,
      "name": "floatBufferViews",
      "target": 34962
    },
    {
      "buffer": 0,
      "byteLength": 3510360,
      "byteOffset": 3772176,
      "byteStride": 12,
      "name": "floatBufferViews",
      "target": 34962
    }
  ],
  "buffers": [
    {
      "byteLength": 7282536,
      "uri": "scene.bin"
    }
  ],
  "materials": [
    {
      "doubleSided": true,
      "name": "null",
      "pbrMetallicRoughness": {
        "baseColorFactor": [
          0.0,
          0.0,
          0.0,
          1.0
        ],
        "metallicFactor": 0.0,
        "roughnessFactor": 0.4692151651403891
      }
    }
  ],
  "meshes": [
    {
      "name": "Object_0",
      "primitives": [
        {
          "attributes": {
            "NORMAL": 1,
            "POSITION": 0,
            "TEXCOORD_0": 2
          },
          "indices": 3,
          "material": 0,
          "mode": 4
        }
      ]
    },
    {
      "name": "Object_1",
      "primitives": [
        {
          "attributes": {
            "NORMAL": 5,
            "POSITION": 4,
            "TEXCOORD_0": 6
          },
          "indices": 7,
          "material": 0,
          "mode": 4
        }
      ]
    },
    {
      "name": "Object_2",
      "primitives": [
        {
          "attributes": {
            "NORMAL": 9,
            "POSITION": 8,
            "TEXCOORD_0": 10
          },
          "indices": 11,
          "material": 0,
          "mode": 4
        }
      ]
    }
  ],
  "nodes": [
    {
      "children": [
        1
      ],
      "matrix": [
        1.0,
        0.0,
        0.0,
        0.0,
        0.0,
        2.220446049250313e-16,
        -1.0,
        0.0,
        0.0,
        1.0,
        2.220446049250313e-16,
        0.0,
        0.0,
        0.0,
        0.0,
        1.0
      ],
      "name": "Sketchfab_model"
    },
    {
      "children": [
        2,
        3,
        4
      ],
      "name": "chaosian.obj.cleaner.materialmerger.gles"
    },
    {
      "mesh": 0,
      "name": "Object_2"
    },
    {
      "mesh": 1,
      "name": "Object_3"
    },
    {
      "mesh": 2,
      "name": "Object_4"
    }
  ],
  "scene": 0,
  "scenes": [
    {
      "name": "Sketchfab_Scene",
      "nodes": [
        0
      ]
    }
  ]
}
